<svg width="56" height="61" viewBox="0 0 56 61" fill="none" xmlns="http://www.w3.org/2000/svg">
<path d="M13.2683 26.938C11.8542 24.432 1.48414 22.9283 1.01278 14.4077C0.541411 5.88714 13.2683 3.88229 13.2683 3.88229C13.2683 3.88229 11.3828 16.9138 18.4534 18.4174C25.5239 19.9211 25.5239 3.88229 25.5239 3.88229C25.5239 3.88229 37.308 5.88714 36.3653 14.4077C35.4226 22.9283 25.5239 26.938 22.6957 26.938C19.8675 26.938 24.1098 48.9914 22.6957 53.0011C21.2816 57.0108 18.4534 57.0108 18.4534 57.0108C18.4534 57.0108 14.6824 57.0108 13.2683 53.0011C11.8542 48.9914 14.6824 29.4441 13.2683 26.938Z" fill="#D9D9D9" stroke="#7F7771"/>
<path d="M47.861 10.0898V34.4479H42.2776V10.0898L40.6133 4.34833L42.2776 1H47.861L49.4681 4.34833L47.861 10.0898Z" fill="#FEF0DD"/>
<path d="M42.2776 34.4479H35.679C35.679 34.4479 34.1391 38.8665 34.6639 44.0149M42.2776 34.4479V10.0898L40.6133 4.34833L42.2776 1H47.861L49.4681 4.34833L47.861 10.0898V34.4479M42.2776 34.4479H47.861M47.861 34.4479H53.952C53.952 34.4479 55.442 38.8665 54.9671 44.0149M34.6639 44.0149C35.4079 51.3144 36.7606 60.0809 45.0083 59.8004C53.1452 59.5237 54.3153 51.0818 54.9671 44.0149M34.6639 44.0149H54.9671" stroke="#7F7771"/>
<path d="M35.679 34.6409H41.2577H48.8761H53.952C53.952 34.6409 55.442 39.0595 54.9671 44.2079C54.3153 51.2748 53.1452 59.7167 45.0083 59.9934C36.7606 60.2739 35.4079 51.5074 34.6639 44.2079C34.1391 39.0595 35.679 34.6409 35.679 34.6409Z" fill="#DE9938"/>
<path d="M34.6639 44.2079C34.1391 39.0595 35.679 34.6409 35.679 34.6409H41.2577H48.8761H53.952C53.952 34.6409 55.442 39.0595 54.9671 44.2079M34.6639 44.2079C35.4079 51.5074 36.7606 60.2739 45.0083 59.9934C53.1452 59.7167 54.3153 51.2748 54.9671 44.2079M34.6639 44.2079H54.9671" stroke="#7F7771"/>
</svg>
