<svg width="53" height="53" viewBox="0 0 53 53" fill="none" xmlns="http://www.w3.org/2000/svg">
<path d="M18 14C24.5 11.5 18 1 18 1H35C35 1 32.5 10 35.5 12.5C38.5 15 45.5 7 45.5 7L52 20C52 20 40.5 21.5 42 27C43.5 32.5 52 32 52 32L42.5 46.5C42.5 46.5 40.5 37 35.5 39.5C30.5 42 35 51 35 51L18 51.5C18 51.5 22 42.5 18 39.5C14 36.5 8 46.5 8 46.5L1 33C1 33 14 34.5 13.5 27C13 19.5 1 21 1 21L8 7C8 7 11.5 16.5 18 14Z" fill="#D9D9D9" stroke="#7F7771"/>
<path d="M23.3934 32.1927C21.3934 29.1927 20.3934 23.6927 23.3934 21.6927C26.3934 19.6927 28.8934 19.1927 32.3934 21.6927C35.8934 24.1927 33.8934 29.6927 32.3934 32.1927C30.8934 34.6927 25.3934 35.1927 23.3934 32.1927Z" fill="#DCE390" stroke="#7F7771"/>
</svg>
