<svg width="57" height="55" viewBox="0 0 57 55" fill="none" xmlns="http://www.w3.org/2000/svg">
<path d="M19.922 22.7324C23.5755 24.3129 19.922 15.2248 19.922 15.2248C19.922 15.2248 39.1027 14.0394 44.5829 17.5956C50.0631 21.1519 43.2129 30.2399 46.8663 33.0059C50.5198 35.7718 56 32.2156 56 29.0545V17.5956C56 17.5956 53.2599 12.4589 50.0631 10.4832C46.8663 8.50755 23.5755 6.53188 19.922 8.50755C16.2686 10.4832 25.8589 1 19.922 1C13.9851 1 3.02474 15.2248 5.30816 15.2248C7.59158 15.2248 16.2685 21.1519 19.922 22.7324Z" fill="#FFB651" stroke="#FF9500"/>
<path d="M37.3358 31.3628C33.6299 29.9378 37.7855 38.9244 37.7855 38.9244C37.7855 38.9244 18.8975 40.9947 13.2676 37.6632C7.6378 34.3317 13.8645 24.8652 10.0877 22.2463C6.31077 19.6273 1.1069 23.4595 1.29621 26.6434L1.9825 38.1848C1.9825 38.1848 4.99859 43.2334 8.27674 45.0772C11.5549 46.9211 34.6949 47.8469 38.1878 45.6901C41.6807 43.5333 32.7692 53.523 38.6374 53.2517C44.5057 52.9805 54.4874 38.1524 52.2304 38.2567C49.9734 38.3611 41.0417 32.7878 37.3358 31.3628Z" fill="#FFB651" stroke="#FF9500"/>
</svg>
